PathFileType	4	(X/Y/Z)	D:\TRACE\spotREDO_2-26-24\spot_baseline_1-v60.trc
DataRate	CameraRate	NumFrames	NumMarkers	Units	OrigDataRate	OrigDataStartFrame	OrigNumFrames
100.00	100.00	      38	9	mm	100.00	1751	      7000
Frame#	Time	front left toe			Front right toe			aft left toe			aft right toe			Arm			FL body			FR body			AL Body			AR Body			
		X1	Y1	Z1	X2	Y2	Z2	X3	Y3	Z3	X4	Y4	Z4	X5	Y5	Z5	X6	Y6	Z6	X7	Y7	Z7	X8	Y8	Z8	X9	Y9	Z9	

1751	17.500	-325.77753	20.52291	-192.43912	250.48605	27.99943	-263.80380	-215.01448	18.87209	288.50360	309.17877	31.01278	271.58929	-84.95068	805.76477	-361.60651	-166.92633	547.49097	-325.27759	-12.26101	550.83508	-347.35330	-52.44033	562.11688	550.90460	94.36718	560.57867	531.89795	
1752	17.510	-326.13019	20.54267	-192.21675	249.16266	28.11893	-264.73056	-213.49640	18.76391	288.39691	309.22000	31.06162	271.62726	-85.25691	806.76172	-361.02768	-166.78476	547.82336	-324.92651	-12.10384	551.20520	-347.16998	-51.98700	562.37585	551.13611	94.46239	560.90375	531.84729	
1753	17.520	-326.16858	20.48427	-192.12511	248.98059	28.22537	-264.83521	-213.34477	18.98238	288.30103	309.39084	31.00579	271.49554	-85.18639	807.10565	-360.66113	-166.55420	548.11481	-324.58295	-11.86654	551.72662	-347.02658	-51.26979	562.70453	551.36359	94.92152	561.18646	531.86700	
1754	17.530	-325.95956	20.43798	-192.16051	249.48380	28.27720	-264.45947	-213.26778	19.00922	288.40189	309.85468	31.07723	271.45328	-85.21141	807.21564	-360.59229	-166.48300	548.41528	-324.36856	-11.94352	552.17505	-347.06131	-50.75523	562.72406	551.33112	97.56071	561.93433	532.90289	
1755	17.540	-325.92975	20.53153	-192.11540	249.21582	28.14753	-264.82983	-213.26933	19.08040	288.45291	309.91528	31.02494	271.44498	-85.39486	807.32471	-360.54578	-166.51114	548.60089	-324.49152	-11.88812	552.40356	-346.99329	-49.32345	562.27893	551.30438	98.34071	562.05377	532.85406	
1756	17.550	-325.98770	20.42680	-192.06194	249.25111	28.16252	-264.75287	-213.16960	19.20743	288.42941	309.94116	30.87942	271.41162	-85.33504	807.44861	-360.59503	-166.31078	548.76514	-324.56406	-11.62813	552.56543	-347.00961	-48.70021	562.37830	551.30347	99.01079	562.14117	532.78156	
1757	17.560	-325.96335	20.52741	-192.09192	248.98860	27.92330	-264.99097	-214.23431	19.73755	288.41293	310.03973	30.79184	271.46692	-85.12825	807.61926	-360.65924	-165.78780	548.85333	-324.66763	-11.21638	552.64093	-346.97809	-47.91187	562.43188	551.15179	100.30574	562.50208	533.06989	
1758	17.570	-325.86685	20.59000	-192.19144	249.15523	27.91386	-264.86929	-213.96188	19.72725	288.42059	310.41132	30.78094	271.51807	-84.66618	807.75861	-360.69022	-165.41498	548.94373	-324.77014	-10.66299	552.71277	-347.10394	-47.26839	562.51123	550.91339	100.74939	562.42395	532.96228	
1759	17.580	-325.74530	20.53322	-192.27199	249.43398	27.85924	-264.67355	-213.96718	19.62741	288.37686	310.52600	30.76907	271.54849	-84.10241	807.78064	-360.85510	-164.79860	548.84406	-324.68362	-10.08397	552.64606	-347.28619	-46.86208	562.54498	550.79449	101.28224	562.50214	532.56067	
1760	17.590	-325.73810	20.59365	-192.31906	249.67155	27.91226	-264.46198	-213.92601	19.73755	288.33749	310.91776	30.88023	271.67786	-83.59608	807.72083	-361.31671	-164.01204	548.74652	-324.90796	-9.45640	552.59198	-347.62234	-46.55590	562.67499	550.65234	101.56480	562.64331	532.24011	
1761	17.600	-325.72501	20.58557	-192.34282	249.62996	27.85543	-264.49396	-213.65704	19.70631	288.26944	310.92838	30.79389	271.64581	-82.73512	807.53748	-361.56805	-163.51353	548.77979	-325.44296	-8.98969	552.53326	-347.84021	-46.11679	562.82086	550.42157	101.91156	562.74005	531.91174	
1762	17.610	-325.75900	20.66123	-192.41249	249.56830	27.75017	-264.52914	-213.60992	19.75384	288.31458	310.84402	30.68103	271.67093	-82.12524	807.45178	-361.94815	-162.90446	548.84137	-325.76804	-8.03591	552.41272	-348.06622	-45.70378	562.93439	550.25293	101.91724	562.87213	531.54895	
1763	17.620	-325.68585	20.67686	-192.41594	249.79333	27.83665	-264.34174	-213.47647	19.74485	288.28159	310.85922	30.61421	271.69989	-81.39403	807.41370	-362.51254	-162.08833	548.55670	-326.14774	-7.28104	552.36230	-348.39404	-45.16565	563.13031	549.97662	102.17645	562.99237	531.30884	
1764	17.630	-325.68512	20.80844	-192.52184	249.69496	27.70241	-264.41577	-213.49348	19.60996	288.15726	310.79584	30.51554	271.69272	-80.56590	807.23010	-362.77902	-161.14763	548.28516	-326.52448	-6.44386	552.15747	-348.71146	-44.89478	563.34601	549.52924	102.43187	563.17084	530.97278	
1765	17.640	-325.63483	20.89110	-192.59979	249.88551	27.72246	-264.34930	-213.50621	19.56966	288.08936	310.84039	30.56942	271.70404	-79.64781	806.93292	-363.21628	-160.29794	548.03931	-326.70306	-5.56086	552.01959	-348.94073	-44.14711	563.36987	549.06555	102.79185	563.49225	530.74390	
1766	17.650	-325.63681	21.00224	-192.74596	249.97643	27.75923	-264.25323	-213.53143	19.55391	288.00940	310.92651	30.58717	271.74109	-78.90397	806.79401	-363.80856	-159.25056	547.88483	-327.25797	-4.57323	551.91559	-349.36377	-44.15585	563.69702	548.79175	103.28357	563.75330	530.43097	
1767	17.660	-325.60184	21.06844	-192.80765	249.92723	27.73516	-264.28711	-213.50862	19.57675	287.95969	310.91962	30.49673	271.76581	-78.03146	806.67389	-364.29047	-158.98230	548.01575	-328.01395	-3.89081	551.89331	-349.79404	-43.54454	563.98035	548.36963	103.67380	563.96558	530.06909	
1768	17.670	-325.56650	21.25662	-192.92604	249.90553	27.93626	-264.22116	-213.42265	19.63002	287.92502	311.04202	30.41509	271.76971	-77.16654	806.48584	-364.78186	-158.10336	548.10577	-328.76163	-3.24524	551.88611	-350.31534	-42.94314	564.01599	547.97314	104.12008	564.10840	529.40356	
1769	17.680	-325.49008	21.23545	-192.93565	249.85014	27.79436	-264.19897	-213.13057	19.68211	287.87421	310.98096	30.31845	271.74783	-76.37763	806.42194	-365.47290	-156.84616	547.74237	-328.95734	-2.22334	551.62433	-350.81018	-42.43452	564.37091	547.33423	105.21766	564.26318	529.32959	
1770	17.690	-325.39072	21.29074	-193.07382	250.08632	27.68419	-264.11389	-212.87019	19.71955	287.84714	311.00552	30.38003	271.75424	-75.65454	806.36816	-366.08331	-156.05608	547.52435	-329.18634	-1.37869	551.47882	-351.35031	-42.00510	564.49670	546.92609	105.28509	564.41827	528.55975	
1771	17.700	-325.36029	21.37386	-193.13124	250.17673	27.59289	-264.12946	-212.82678	19.71113	287.74225	311.09659	30.27172	271.71817	-74.83347	806.10498	-366.73541	-155.30757	547.42566	-329.96716	-0.64719	551.49719	-351.90695	-40.98773	564.54785	546.31805	105.98887	564.60278	527.92456	
1772	17.710	-325.34186	21.43279	-193.20813	250.01624	27.51991	-264.20828	-212.83232	19.83102	287.62747	311.06473	30.10300	271.64984	-74.19067	806.00116	-367.25409	-154.60913	547.22186	-330.55426	0.24279	551.35876	-352.42508	-40.44012	564.71124	545.70709	106.81731	564.76611	527.37372	
1773	17.720	-325.29266	21.49315	-193.20053	250.11613	27.62846	-264.19934	-212.72794	19.85406	287.66602	311.19022	30.07937	271.65662	-73.41903	805.85516	-368.13339	-153.84796	547.04803	-331.12869	1.01227	551.25891	-352.97574	-39.53537	564.91144	545.12262	107.80352	565.01331	526.86475	
1774	17.730	-325.24765	21.55358	-193.25684	250.10896	27.51888	-264.25034	-212.71880	19.93495	287.63968	311.19189	29.97433	271.61624	-72.66654	805.72498	-368.65308	-153.07428	546.89844	-331.49512	1.64892	551.07800	-353.44797	-38.54427	565.06335	544.55994	108.45275	565.20355	526.16913	
1775	17.740	-325.26208	21.55410	-193.27910	250.12569	27.50258	-264.21088	-212.61542	20.10315	287.57117	311.28818	30.01037	271.59845	-72.08408	805.63879	-369.46335	-152.26352	546.80408	-331.87582	2.53900	550.94751	-354.12701	-37.76083	565.20264	543.96259	109.57564	565.16724	525.43524	
1776	17.750	-325.21417	21.58479	-193.33287	250.46126	27.36625	-264.15378	-212.49782	20.21185	287.52209	311.38660	29.96001	271.61227	-71.48494	805.56226	-370.13574	-151.27223	546.74335	-332.59549	3.44275	550.82458	-354.68216	-36.57270	565.29077	543.31799	110.69756	565.30005	524.96783	
1777	17.760	-325.20929	21.68540	-193.41830	250.46214	27.20497	-264.24066	-212.41086	20.17105	287.52496	311.42279	29.89725	271.57397	-70.83970	805.45294	-370.80222	-150.86185	546.69995	-333.27179	3.96806	550.67145	-355.42978	-35.89292	565.18781	542.66327	111.52736	565.22809	524.23743	
1778	17.770	-325.09332	21.73072	-193.48788	250.46867	27.25374	-264.23996	-212.32568	20.21680	287.47592	311.49884	29.91075	271.56677	-69.77004	805.42957	-371.45541	-149.76695	546.54053	-333.93420	4.53251	550.74725	-356.17108	-34.33113	565.17804	541.84961	112.46926	565.33209	523.47864	
1779	17.780	-325.07260	21.79177	-193.48732	250.40819	27.11124	-264.35828	-212.19823	20.34361	287.47736	311.55234	29.87126	271.56494	-69.14572	805.31708	-371.91928	-149.22112	546.43787	-334.38867	5.50294	550.60986	-356.87378	-33.61281	565.29529	541.39600	113.69432	565.47650	522.79413	
1780	17.790	-325.09503	21.83477	-193.52159	250.41252	27.05238	-264.33511	-212.09473	20.37790	287.48749	311.56583	29.84649	271.54636	-68.51375	805.31140	-372.73120	-148.22330	546.36578	-335.14642	6.18300	550.53204	-357.50836	-32.32940	565.34595	540.68262	114.65462	565.53406	521.97565	
1781	17.800	-324.97278	21.84488	-193.59877	250.45969	26.95854	-264.35318	-211.89955	20.42812	287.42416	311.69907	29.85783	271.60162	-67.35843	805.18604	-373.22281	-147.54222	546.36639	-335.51419	7.23681	550.59631	-358.04794	-31.17303	565.08179	539.95789	115.87192	565.53833	521.57593	
1782	17.810	-324.82309	21.82056	-193.64369	250.58319	26.93768	-264.30872	-211.85667	20.45960	287.36270	311.77209	29.85007	271.61792	-66.81683	805.25214	-374.12057	-146.50111	546.24854	-336.56848	8.22041	550.56714	-358.76135	-30.21519	565.10291	539.30145	117.15839	565.46356	520.93677	
1783	17.820	-324.72028	21.81792	-193.71516	250.62106	26.31325	-264.61966	-211.76563	20.53170	287.38385	311.80820	29.80225	271.63162	-65.92240	805.05933	-374.66879	-145.44067	546.33752	-337.28964	9.13230	550.68298	-359.57703	-29.08041	564.96472	538.52747	117.83497	565.38757	520.00720	
1784	17.830	-324.68320	21.88488	-193.76614	250.68367	26.32508	-264.62430	-211.69423	20.56216	287.34555	311.79626	29.64588	271.58664	-64.90277	805.16357	-375.40775	-144.48566	546.15100	-338.02521	9.68493	550.60400	-360.32480	-28.02044	565.04761	537.81659	118.89113	565.40021	519.04755	
1785	17.840	-324.51639	22.10817	-193.84100	250.75931	26.22818	-264.57495	-211.66447	20.65294	287.35678	311.82819	29.58421	271.55948	-63.98524	805.15051	-376.05609	-143.67238	546.23663	-338.69293	11.18982	550.70679	-360.99796	-26.78511	564.81970	537.05139	120.13645	565.37579	518.49048	
1786	17.850	-324.47293	22.20565	-193.99506	250.76091	26.16199	-264.58215	-211.62973	20.76800	287.32138	311.74426	29.41940	271.48584	-63.37075	805.50311	-377.06290	-142.45313	546.27008	-339.60812	12.22753	550.88965	-361.77893	-25.98944	564.82159	536.31866	120.97531	565.38391	517.63202	
1787	17.860	-324.33337	22.23814	-194.10280	251.00191	26.13703	-264.51517	-211.52158	20.78143	287.26205	311.89169	29.33544	271.46939	-62.12093	805.40344	-377.58804	-141.37961	546.34369	-340.39569	13.47462	551.03333	-362.53223	-25.07768	564.51373	535.33606	122.03716	565.34924	516.74939	
1788	17.870	-324.05334	22.15458	-194.09448	251.10561	26.09906	-264.54880	-211.37976	20.74790	287.23123	311.89313	29.22271	271.42975	-61.10587	805.52332	-378.54761	-140.27148	546.30005	-341.18747	14.60780	551.00171	-363.44308	-24.15104	564.51514	534.56091	122.90916	565.22424	516.07507	
